<svg width="45" height="45" viewBox="0 0 45 45" fill="none" xmlns="http://www.w3.org/2000/svg">
<path d="M25.5 16.5H6C5.60218 16.5 5.22064 16.342 4.93934 16.0607C4.65804 15.7794 4.5 15.3978 4.5 15C4.5 14.6022 4.65804 14.2206 4.93934 13.9393C5.22064 13.658 5.60218 13.5 6 13.5H25.5C25.8978 13.5 26.2794 13.658 26.5607 13.9393C26.842 14.2206 27 14.6022 27 15C27 15.3978 26.842 15.7794 26.5607 16.0607C26.2794 16.342 25.8978 16.5 25.5 16.5ZM39 16.5H33C32.6022 16.5 32.2206 16.342 31.9393 16.0607C31.658 15.7794 31.5 15.3978 31.5 15C31.5 14.6022 31.658 14.2206 31.9393 13.9393C32.2206 13.658 32.6022 13.5 33 13.5H39C39.3978 13.5 39.7794 13.658 40.0607 13.9393C40.342 14.2206 40.5 14.6022 40.5 15C40.5 15.3978 40.342 15.7794 40.0607 16.0607C39.7794 16.342 39.3978 16.5 39 16.5Z" fill="#111224"/>
<path d="M29.25 20.25C28.2116 20.25 27.1966 19.9421 26.3333 19.3652C25.4699 18.7883 24.797 17.9684 24.3996 17.0091C24.0023 16.0498 23.8983 14.9942 24.1009 13.9758C24.3034 12.9574 24.8035 12.0219 25.5377 11.2877C26.2719 10.5535 27.2074 10.0535 28.2258 9.85088C29.2442 9.64831 30.2998 9.75227 31.2591 10.1496C32.2184 10.547 33.0383 11.2199 33.6152 12.0833C34.1921 12.9466 34.5 13.9617 34.5 15C34.5 16.3924 33.9469 17.7277 32.9623 18.7123C31.9777 19.6969 30.6424 20.25 29.25 20.25ZM29.25 12.75C28.805 12.75 28.37 12.882 28 13.1292C27.63 13.3764 27.3416 13.7278 27.1713 14.139C27.001 14.5501 26.9564 15.0025 27.0432 15.439C27.13 15.8754 27.3443 16.2763 27.659 16.591C27.9737 16.9057 28.3746 17.12 28.811 17.2068C29.2475 17.2936 29.6999 17.249 30.111 17.0787C30.5222 16.9084 30.8736 16.62 31.1208 16.25C31.368 15.88 31.5 15.445 31.5 15C31.5 14.4033 31.2629 13.831 30.841 13.409C30.419 12.9871 29.8467 12.75 29.25 12.75ZM39 31.5H19.5C19.1022 31.5 18.7206 31.342 18.4393 31.0607C18.158 30.7794 18 30.3978 18 30C18 29.6022 18.158 29.2206 18.4393 28.9393C18.7206 28.658 19.1022 28.5 19.5 28.5H39C39.3978 28.5 39.7794 28.658 40.0607 28.9393C40.342 29.2206 40.5 29.6022 40.5 30C40.5 30.3978 40.342 30.7794 40.0607 31.0607C39.7794 31.342 39.3978 31.5 39 31.5ZM12 31.5H6C5.60218 31.5 5.22064 31.342 4.93934 31.0607C4.65804 30.7794 4.5 30.3978 4.5 30C4.5 29.6022 4.65804 29.2206 4.93934 28.9393C5.22064 28.658 5.60218 28.5 6 28.5H12C12.3978 28.5 12.7794 28.658 13.0607 28.9393C13.342 29.2206 13.5 29.6022 13.5 30C13.5 30.3978 13.342 30.7794 13.0607 31.0607C12.7794 31.342 12.3978 31.5 12 31.5Z" fill="#111224"/>
<path d="M15.75 35.25C14.7117 35.25 13.6966 34.9421 12.8333 34.3652C11.9699 33.7883 11.297 32.9684 10.8996 32.0091C10.5023 31.0498 10.3983 29.9942 10.6009 28.9758C10.8035 27.9574 11.3035 27.0219 12.0377 26.2877C12.7719 25.5535 13.7074 25.0535 14.7258 24.8509C15.7442 24.6483 16.7998 24.7523 17.7591 25.1496C18.7184 25.547 19.5383 26.2199 20.1152 27.0833C20.6921 27.9466 21 28.9617 21 30C21 31.3924 20.4469 32.7277 19.4623 33.7123C18.4777 34.6969 17.1424 35.25 15.75 35.25ZM15.75 27.75C15.305 27.75 14.87 27.882 14.5 28.1292C14.13 28.3764 13.8416 28.7278 13.6713 29.139C13.501 29.5501 13.4564 30.0025 13.5432 30.439C13.6301 30.8754 13.8443 31.2763 14.159 31.591C14.4737 31.9057 14.8746 32.12 15.311 32.2068C15.7475 32.2936 16.1999 32.249 16.611 32.0787C17.0222 31.9084 17.3736 31.62 17.6208 31.25C17.868 30.88 18 30.445 18 30C18 29.4033 17.7629 28.831 17.341 28.409C16.919 27.9871 16.3467 27.75 15.75 27.75Z" fill="#111224"/>
</svg>
