<svg width="60" height="60" viewBox="0 0 60 60" fill="none" xmlns="http://www.w3.org/2000/svg">
<g id="Vector">
<path id="Vector_2" d="M41.13 32.13C41.4031 31.8447 41.6172 31.5083 41.76 31.14C42.0601 30.4096 42.0601 29.5904 41.76 28.86C41.6172 28.4918 41.4031 28.1553 41.13 27.87L32.13 18.87C31.5651 18.3051 30.7989 17.9877 30 17.9877C29.2011 17.9877 28.4349 18.3051 27.87 18.87C27.3051 19.4349 26.9877 20.2011 26.9877 21C26.9877 21.7989 27.3051 22.5651 27.87 23.13L31.77 27H21C20.2044 27 19.4413 27.3161 18.8787 27.8787C18.3161 28.4413 18 29.2044 18 30C18 30.7957 18.3161 31.5587 18.8787 32.1213C19.4413 32.6839 20.2044 33 21 33H31.77L27.87 36.87C27.5888 37.1489 27.3656 37.4807 27.2133 37.8463C27.061 38.2119 26.9826 38.604 26.9826 39C26.9826 39.396 27.061 39.7882 27.2133 40.1537C27.3656 40.5193 27.5888 40.8511 27.87 41.13C28.1489 41.4112 28.4807 41.6344 28.8463 41.7867C29.2119 41.939 29.604 42.0174 30 42.0174C30.396 42.0174 30.7882 41.939 31.1537 41.7867C31.5193 41.6344 31.8511 41.4112 32.13 41.13L41.13 32.13ZM60 30C60 24.0666 58.2405 18.2664 54.9441 13.3329C51.6476 8.39943 46.9623 4.55426 41.4805 2.28363C35.9987 0.0129985 29.9667 -0.581101 24.1473 0.576455C18.3279 1.73401 12.9824 4.59123 8.78681 8.78681C4.59123 12.9824 1.73401 18.3279 0.576455 24.1473C-0.581101 29.9667 0.0129985 35.9987 2.28363 41.4805C4.55426 46.9623 8.39943 51.6476 13.3329 54.9441C18.2664 58.2405 24.0666 60 30 60C37.9565 60 45.5871 56.8393 51.2132 51.2132C56.8393 45.5871 60 37.9565 60 30ZM6.00001 30C6.00001 25.2533 7.40759 20.6131 10.0447 16.6663C12.6819 12.7195 16.4302 9.64341 20.8156 7.8269C25.201 6.0104 30.0266 5.53512 34.6822 6.46117C39.3377 7.38721 43.6141 9.67299 46.9706 13.0294C50.327 16.3859 52.6128 20.6623 53.5389 25.3178C54.4649 29.9734 53.9896 34.799 52.1731 39.1844C50.3566 43.5698 47.2805 47.3181 43.3337 49.9553C39.3869 52.5924 34.7468 54 30 54C23.6348 54 17.5303 51.4714 13.0294 46.9706C8.52858 42.4697 6.00001 36.3652 6.00001 30Z" fill="black"/>
</g>
</svg>
