<svg width="34" height="34" viewBox="0 0 34 34" fill="none" xmlns="http://www.w3.org/2000/svg">
<path d="M4.15814 23.0389C6.46603 25.35 9.53941 26.7374 12.7993 26.9397C16.0592 27.142 19.2805 26.1453 21.8565 24.1372L30.7198 33.0005C31.0341 33.3041 31.4551 33.4721 31.8921 33.4683C32.3291 33.4645 32.7472 33.2892 33.0562 32.9802C33.3652 32.6712 33.5405 32.2532 33.5443 31.8162C33.5481 31.3792 33.3801 30.9582 33.0765 30.6439L24.2131 21.7805C26.3103 19.0891 27.3018 15.6991 26.9854 12.3018C26.6691 8.90452 25.0687 5.75586 22.5106 3.49798C19.9526 1.24009 16.6295 0.0430582 13.2192 0.151001C9.80896 0.258944 6.56828 1.66373 4.15814 4.07887C2.9128 5.32358 1.92491 6.80145 1.2509 8.42806C0.576894 10.0547 0.22998 11.7981 0.22998 13.5589C0.22998 15.3196 0.576894 17.0631 1.2509 18.6897C1.92491 20.3163 2.9128 21.7942 4.15814 23.0389ZM6.5148 6.43887C8.16243 4.79129 10.3303 3.76594 12.6492 3.53753C14.968 3.30912 17.2943 3.89179 19.2317 5.18624C21.1692 6.4807 22.5978 8.40687 23.2743 10.6366C23.9508 12.8663 23.8333 15.2615 22.9417 17.4143C22.0502 19.5671 20.4399 21.3441 18.385 22.4427C16.3302 23.5413 13.958 23.8934 11.6727 23.4391C9.38733 22.9847 7.33021 21.7521 5.8518 19.9511C4.37339 18.1501 3.56515 15.8923 3.5648 13.5622C3.56023 12.2382 3.81865 10.9264 4.32505 9.70301C4.83146 8.47962 5.57577 7.36899 6.5148 6.43554V6.43887Z" fill="black"/>
</svg>
