<svg width="50" height="50" viewBox="0 0 50 50" fill="none" xmlns="http://www.w3.org/2000/svg">
<path d="M27.9375 24.9999L41.0625 11.8957C41.4548 11.5034 41.6752 10.9714 41.6752 10.4166C41.6752 9.86177 41.4548 9.3297 41.0625 8.9374C40.6702 8.5451 40.1382 8.32471 39.5834 8.32471C39.0286 8.32471 38.4965 8.5451 38.1042 8.9374L25 22.0624L11.8959 8.9374C11.5036 8.5451 10.9715 8.32471 10.4167 8.32471C9.86191 8.32471 9.32983 8.5451 8.93754 8.9374C8.54524 9.3297 8.32484 9.86177 8.32484 10.4166C8.32484 10.9714 8.54524 11.5034 8.93754 11.8957L22.0625 24.9999L8.93754 38.1041C8.74227 38.2977 8.58728 38.5282 8.48151 38.782C8.37574 39.0359 8.32129 39.3082 8.32129 39.5832C8.32129 39.8583 8.37574 40.1306 8.48151 40.3844C8.58728 40.6383 8.74227 40.8687 8.93754 41.0624C9.13121 41.2577 9.36163 41.4127 9.6155 41.5184C9.86937 41.6242 10.1417 41.6786 10.4167 41.6786C10.6917 41.6786 10.964 41.6242 11.2179 41.5184C11.4718 41.4127 11.7022 41.2577 11.8959 41.0624L25 27.9374L38.1042 41.0624C38.2979 41.2577 38.5283 41.4127 38.7822 41.5184C39.036 41.6242 39.3083 41.6786 39.5834 41.6786C39.8584 41.6786 40.1307 41.6242 40.3846 41.5184C40.6384 41.4127 40.8689 41.2577 41.0625 41.0624C41.2578 40.8687 41.4128 40.6383 41.5186 40.3844C41.6243 40.1306 41.6788 39.8583 41.6788 39.5832C41.6788 39.3082 41.6243 39.0359 41.5186 38.782C41.4128 38.5282 41.2578 38.2977 41.0625 38.1041L27.9375 24.9999Z" fill="black"/>
</svg>
