<svg width="32" height="32" viewBox="0 0 32 32" fill="none" xmlns="http://www.w3.org/2000/svg">
<g id="location">
<g id="Group">
<path id="Vector" fill-rule="evenodd" clip-rule="evenodd" d="M6.02167 14.0238C6.04026 8.55078 10.4921 4.1291 15.9651 4.14764C21.4381 4.16629 25.8598 8.61812 25.8412 14.0911V14.2034C25.7738 17.761 23.7874 21.0493 21.352 23.6193C19.9593 25.0656 18.4039 26.346 16.717 27.4351C16.266 27.8252 15.5969 27.8252 15.1458 27.4351C12.631 25.7982 10.4239 23.7316 8.62536 21.3298C7.02235 19.2354 6.11222 16.6934 6.02167 14.0575V14.0238Z" stroke="#C2C2C2" stroke-width="1.475" stroke-linecap="round" stroke-linejoin="round"/>
<path id="Vector_2" d="M15.9312 17.3902C17.6854 17.3902 19.1074 15.9681 19.1074 14.2139C19.1074 12.4598 17.6854 11.0377 15.9312 11.0377C14.177 11.0377 12.7549 12.4598 12.7549 14.2139C12.7549 15.9681 14.177 17.3902 15.9312 17.3902Z" stroke="#C2C2C2" stroke-width="1.475" stroke-linecap="round" stroke-linejoin="round"/>
</g>
</g>
</svg>
