<svg width="21" height="22" viewBox="0 0 21 22" fill="none" xmlns="http://www.w3.org/2000/svg">
<path fill-rule="evenodd" clip-rule="evenodd" d="M3.70923 9.59246C3.72184 5.88195 6.74002 2.8842 10.4505 2.89677C14.161 2.90941 17.1588 5.9276 17.1462 9.63811V9.7142C17.1005 12.1262 15.7538 14.3555 14.1027 16.0979C13.1585 17.0784 12.104 17.9465 10.9603 18.6849C10.6545 18.9494 10.2009 18.9494 9.8951 18.6849C8.19016 17.5751 6.6938 16.1741 5.47445 14.5457C4.38766 13.1258 3.77062 11.4023 3.70923 9.61529V9.59246Z" stroke="#C2C2C2" stroke-linecap="round" stroke-linejoin="round"/>
<path d="M10.4274 11.8751C11.6167 11.8751 12.5808 10.911 12.5808 9.72173C12.5808 8.53246 11.6167 7.56836 10.4274 7.56836C9.23815 7.56836 8.27405 8.53246 8.27405 9.72173C8.27405 10.911 9.23815 11.8751 10.4274 11.8751Z" stroke="#C2C2C2" stroke-linecap="round" stroke-linejoin="round"/>
</svg>
