<svg width="17" height="16" viewBox="0 0 17 16" fill="none" xmlns="http://www.w3.org/2000/svg">
<path fill-rule="evenodd" clip-rule="evenodd" d="M8.50264 0.665283C4.46002 0.665283 1.16406 3.95658 1.16406 7.99852C1.16406 12.0405 4.46069 15.3358 8.50264 15.3358C12.5446 15.3358 15.8345 12.0405 15.8345 7.99852C15.8345 3.95658 12.5446 0.665283 8.50264 0.665283ZM8.50264 1.9986C9.29087 1.99728 10.0716 2.15159 10.8001 2.45266C11.5285 2.75373 12.1904 3.19566 12.7477 3.75308C13.305 4.3105 13.7468 4.97246 14.0477 5.701C14.3486 6.42953 14.5027 7.2103 14.5012 7.99852C14.5028 8.78697 14.3488 9.56797 14.0479 10.2968C13.7471 11.0256 13.3054 11.6878 12.7481 12.2456C12.1909 12.8033 11.529 13.2456 10.8005 13.5471C10.0719 13.8486 9.29108 14.0033 8.50264 14.0024C7.71386 14.0034 6.93263 13.8488 6.20369 13.5474C5.47475 13.2461 4.81241 12.8039 4.2546 12.2462C3.69678 11.6885 3.25445 11.0262 2.95292 10.2974C2.65139 9.5685 2.49659 8.78731 2.49738 7.99852C2.49738 4.67723 5.18135 1.9986 8.50264 1.9986ZM8.49197 3.32258C8.40385 3.32345 8.31678 3.34177 8.23579 3.3765C8.1548 3.41122 8.0815 3.46166 8.02012 3.5249C7.95875 3.58813 7.91052 3.66291 7.87822 3.7449C7.84593 3.82689 7.83021 3.91447 7.83198 4.00257V7.99852C7.83235 8.08625 7.85003 8.17304 7.884 8.25392C7.91798 8.3348 7.96758 8.40818 8.02998 8.46985L10.6966 11.1378C10.7583 11.2013 10.832 11.2518 10.9134 11.2865C10.9949 11.3212 11.0824 11.3394 11.1709 11.3399C11.2594 11.3404 11.3471 11.3233 11.4289 11.2895C11.5108 11.2557 11.585 11.206 11.6474 11.1433C11.7098 11.0805 11.7591 11.006 11.7924 10.9239C11.8257 10.8419 11.8423 10.7541 11.8413 10.6656C11.8403 10.5771 11.8217 10.4897 11.7865 10.4085C11.7514 10.3272 11.7004 10.2538 11.6366 10.1925L9.16663 7.72253V4.00257C9.16842 3.91323 9.15224 3.82445 9.11903 3.74149C9.08583 3.65853 9.03629 3.58309 8.97336 3.51965C8.91042 3.45622 8.83537 3.40609 8.75268 3.37223C8.66998 3.33838 8.58132 3.32149 8.49197 3.32258Z" fill="#C2C2C2"/>
</svg>
