<svg width="21" height="22" viewBox="0 0 21 22" fill="none" xmlns="http://www.w3.org/2000/svg">
<mask id="path-1-inside-1_3284_833" fill="white">
<path d="M10.836 18.1401C6.90904 18.1401 3.73804 14.9481 3.73804 11.0421C3.73804 7.11509 6.93004 3.94409 10.836 3.94409C14.742 3.94409 17.934 7.13609 17.934 11.0421C17.934 14.9481 14.763 18.1401 10.836 18.1401ZM10.836 4.70009C7.35004 4.70009 4.49404 7.53509 4.49404 11.0211C4.49404 14.5071 7.32904 17.3631 10.836 17.3631C14.343 17.3631 17.178 14.5281 17.178 11.0211C17.178 7.53509 14.322 4.70009 10.836 4.70009Z"/>
</mask>
<path d="M10.836 18.1401C6.90904 18.1401 3.73804 14.9481 3.73804 11.0421C3.73804 7.11509 6.93004 3.94409 10.836 3.94409C14.742 3.94409 17.934 7.13609 17.934 11.0421C17.934 14.9481 14.763 18.1401 10.836 18.1401ZM10.836 4.70009C7.35004 4.70009 4.49404 7.53509 4.49404 11.0211C4.49404 14.5071 7.32904 17.3631 10.836 17.3631C14.343 17.3631 17.178 14.5281 17.178 11.0211C17.178 7.53509 14.322 4.70009 10.836 4.70009Z" fill="#C2C2C2"/>
<path d="M10.836 16.6401C7.74035 16.6401 5.23804 14.1226 5.23804 11.0421H2.23804C2.23804 15.7736 6.07772 19.6401 10.836 19.6401V16.6401ZM5.23804 11.0421C5.23804 7.94641 7.75557 5.44409 10.836 5.44409V2.44409C6.1045 2.44409 2.23804 6.28378 2.23804 11.0421H5.23804ZM10.836 5.44409C13.9136 5.44409 16.434 7.96452 16.434 11.0421H19.434C19.434 6.30767 15.5705 2.44409 10.836 2.44409V5.44409ZM16.434 11.0421C16.434 14.1226 13.9317 16.6401 10.836 16.6401V19.6401C15.5944 19.6401 19.434 15.7736 19.434 11.0421H16.434ZM10.836 3.20009C6.52809 3.20009 2.99404 6.7002 2.99404 11.0211H5.99404C5.99404 8.36998 8.17198 6.20009 10.836 6.20009V3.20009ZM2.99404 11.0211C2.99404 15.3323 6.49738 18.8631 10.836 18.8631V15.8631C8.1607 15.8631 5.99404 13.6819 5.99404 11.0211H2.99404ZM10.836 18.8631C15.1715 18.8631 18.678 15.3565 18.678 11.0211H15.678C15.678 13.6997 13.5146 15.8631 10.836 15.8631V18.8631ZM18.678 11.0211C18.678 6.7002 15.144 3.20009 10.836 3.20009V6.20009C13.5001 6.20009 15.678 8.36998 15.678 11.0211H18.678Z" fill="#C2C2C2" mask="url(#path-1-inside-1_3284_833)"/>
<path d="M13.356 13.5619L13.3455 13.5514L13.356 13.5619Z" fill="#C2C2C2" stroke="#C2C2C2" stroke-width="1.5"/>
</svg>
