<svg width="32" height="32" viewBox="0 0 32 32" fill="none" xmlns="http://www.w3.org/2000/svg">
<g id="Time">
<g id="Vector">
<mask id="path-1-inside-1_3458_1065" fill="white">
<path d="M16.533 26.7565C10.7406 26.7565 6.06342 22.0483 6.06342 16.2869C6.06342 10.4946 10.7716 5.81738 16.533 5.81738C22.2943 5.81738 27.0025 10.5256 27.0025 16.2869C27.0025 22.0483 22.3253 26.7565 16.533 26.7565ZM16.533 6.93248C11.3911 6.93248 7.17852 11.1141 7.17852 16.256C7.17852 21.3978 11.3601 25.6104 16.533 25.6104C21.7058 25.6104 25.8874 21.4288 25.8874 16.256C25.8874 11.1141 21.6748 6.93248 16.533 6.93248Z"/>
</mask>
<path d="M16.533 26.7565C10.7406 26.7565 6.06342 22.0483 6.06342 16.2869C6.06342 10.4946 10.7716 5.81738 16.533 5.81738C22.2943 5.81738 27.0025 10.5256 27.0025 16.2869C27.0025 22.0483 22.3253 26.7565 16.533 26.7565ZM16.533 6.93248C11.3911 6.93248 7.17852 11.1141 7.17852 16.256C7.17852 21.3978 11.3601 25.6104 16.533 25.6104C21.7058 25.6104 25.8874 21.4288 25.8874 16.256C25.8874 11.1141 21.6748 6.93248 16.533 6.93248Z" fill="#C2C2C2"/>
<path d="M16.533 24.544C11.9668 24.544 8.27592 20.8306 8.27592 16.2869H3.85092C3.85092 23.266 9.51445 28.969 16.533 28.969V24.544ZM8.27592 16.2869C8.27592 11.7208 11.9893 8.02988 16.533 8.02988V3.60488C9.55395 3.60488 3.85092 9.26842 3.85092 16.2869H8.27592ZM16.533 8.02988C21.0724 8.02988 24.79 11.7475 24.79 16.2869H29.215C29.215 9.30365 23.5162 3.60488 16.533 3.60488V8.02988ZM24.79 16.2869C24.79 20.8306 21.0991 24.544 16.533 24.544V28.969C23.5515 28.969 29.215 23.266 29.215 16.2869H24.79ZM16.533 4.71998C10.1787 4.71998 4.96602 9.88264 4.96602 16.256H9.39102C9.39102 12.3456 12.6035 9.14498 16.533 9.14498V4.71998ZM4.96602 16.256C4.96602 22.615 10.1334 27.8229 16.533 27.8229V23.3979C12.5868 23.3979 9.39102 20.1806 9.39102 16.256H4.96602ZM16.533 27.8229C22.9277 27.8229 28.0999 22.6507 28.0999 16.256H23.6749C23.6749 20.2069 20.4839 23.3979 16.533 23.3979V27.8229ZM28.0999 16.256C28.0999 9.88264 22.8872 4.71998 16.533 4.71998V9.14498C20.4624 9.14498 23.6749 12.3456 23.6749 16.256H28.0999Z" fill="#C2C2C2" mask="url(#path-1-inside-1_3458_1065)"/>
</g>
<g id="Vector_2">
<mask id="path-3-inside-2_3458_1065" fill="white">
<path d="M20.2503 20.5307C20.0954 20.5307 19.9715 20.4687 19.8476 20.3758L16.1306 16.6588C16.0377 16.5659 15.9758 16.411 15.9758 16.2561V9.47259C15.9758 9.16284 16.2236 8.91504 16.5333 8.91504C16.8431 8.91504 17.0909 9.16284 17.0909 9.47259V16.0393L20.622 19.5704C20.8388 19.7873 20.8388 20.159 20.622 20.3758C20.5291 20.4687 20.3742 20.5307 20.2503 20.5307Z"/>
</mask>
<path d="M20.2503 20.5307C20.0954 20.5307 19.9715 20.4687 19.8476 20.3758L16.1306 16.6588C16.0377 16.5659 15.9758 16.411 15.9758 16.2561V9.47259C15.9758 9.16284 16.2236 8.91504 16.5333 8.91504C16.8431 8.91504 17.0909 9.16284 17.0909 9.47259V16.0393L20.622 19.5704C20.8388 19.7873 20.8388 20.159 20.622 20.3758C20.5291 20.4687 20.3742 20.5307 20.2503 20.5307Z" fill="#C2C2C2"/>
<path d="M19.8476 20.3758L18.2832 21.9403L18.3944 22.0514L18.5201 22.1458L19.8476 20.3758ZM16.1306 16.6588L14.5662 18.2233H14.5662L16.1306 16.6588ZM17.0909 16.0393H14.8784V16.9557L15.5264 17.6038L17.0909 16.0393ZM20.622 19.5704L22.1865 18.006L20.622 19.5704ZM20.2503 18.3182C20.4836 18.3182 20.6992 18.3679 20.8798 18.4422C21.045 18.5103 21.1484 18.5857 21.1751 18.6058L18.5201 22.1458C18.8382 22.3843 19.4249 22.7432 20.2503 22.7432V18.3182ZM21.4121 18.8113L17.6951 15.0943L14.5662 18.2233L18.2832 21.9403L21.4121 18.8113ZM17.6951 15.0943C17.8997 15.2989 18.0152 15.5112 18.0804 15.6788C18.1477 15.8519 18.1883 16.0458 18.1883 16.2561H13.7633C13.7633 16.9263 14.0104 17.6675 14.5662 18.2233L17.6951 15.0943ZM18.1883 16.2561V9.47259H13.7633V16.2561H18.1883ZM18.1883 9.47259C18.1883 10.3848 17.4455 11.1275 16.5333 11.1275V6.70254C15.0016 6.70254 13.7633 7.94091 13.7633 9.47259H18.1883ZM16.5333 11.1275C15.6211 11.1275 14.8784 10.3848 14.8784 9.47259H19.3034C19.3034 7.94091 18.065 6.70254 16.5333 6.70254V11.1275ZM14.8784 9.47259V16.0393H19.3034V9.47259H14.8784ZM15.5264 17.6038L19.0575 21.1349L22.1865 18.006L18.6553 14.4748L15.5264 17.6038ZM19.0575 21.1349C18.4103 20.4877 18.4103 19.4585 19.0575 18.8113L22.1865 21.9403C23.2674 20.8594 23.2674 19.0868 22.1865 18.006L19.0575 21.1349ZM19.0575 18.8113C19.2564 18.6124 19.4569 18.5033 19.6054 18.4422C19.7522 18.3818 19.9695 18.3182 20.2503 18.3182V22.7432C20.9543 22.7432 21.6739 22.4528 22.1865 21.9403L19.0575 18.8113Z" fill="#C2C2C2" mask="url(#path-3-inside-2_3458_1065)"/>
</g>
</g>
</svg>
