<svg width="52" height="53" viewBox="0 0 52 53" fill="none" xmlns="http://www.w3.org/2000/svg">
    <g id="user">
        <path id="Vector" d="M26 4.08643C20.0575 4.09307 14.3603 6.45665 10.1584 10.6586C5.95641 14.8606 3.59283 20.5578 3.58618 26.5002C3.59614 32.4417 5.96078 38.1369 10.162 42.3382C14.3633 46.5394 20.0585 48.9041 26 48.914C31.9445 48.914 37.6455 46.5526 41.8489 42.3492C46.0523 38.1458 48.4138 32.4447 48.4138 26.5002C48.4138 20.5557 46.0523 14.8547 41.8489 10.6513C37.6455 6.44787 31.9445 4.08643 26 4.08643ZM39.6329 39.4339C38.3741 36.8949 36.4308 34.7581 34.0223 33.2648C31.6137 31.7715 28.8357 30.981 26.0018 30.9825C23.1679 30.9839 20.3907 31.7774 17.9837 33.2733C15.5767 34.7691 13.6357 36.9079 12.3796 39.4482C9.0281 35.9723 7.16063 31.3287 7.17239 26.5002C7.17239 21.5068 9.156 16.718 12.6869 13.1871C16.2177 9.65625 21.0066 7.67263 26 7.67263C30.9934 7.67263 35.7822 9.65625 39.3131 13.1871C42.8439 16.718 44.8276 21.5068 44.8276 26.5002C44.8388 31.3219 42.9762 35.9594 39.6329 39.4339ZM26 13.0519C24.4041 13.0519 22.844 13.5252 21.5171 14.4118C20.1902 15.2984 19.1559 16.5586 18.5452 18.033C17.9345 19.5075 17.7747 21.1299 18.0861 22.6951C18.3974 24.2603 19.1659 25.6981 20.2944 26.8265C21.4228 27.955 22.8606 28.7235 24.4258 29.0348C25.991 29.3462 27.6134 29.1864 29.0878 28.5757C30.5622 27.9649 31.8224 26.9307 32.7091 25.6038C33.5957 24.2769 34.0689 22.7168 34.0689 21.1209C34.0689 20.0613 33.8602 19.012 33.4547 18.033C33.0492 17.0541 32.4549 16.1646 31.7056 15.4153C30.9563 14.666 30.0668 14.0717 29.0878 13.6662C28.1089 13.2607 27.0596 13.0519 26 13.0519Z" fill="#7635BD"/>
    </g>
</svg>
